# xmcd CD database file
#
# Track frame offsets:
#	183
#	12258
#	26475
#	41745
#	54750
#	70513
#	84963
#	99660
#	112975
#	127988
#	142463
#	156458
#	169285
#	181595
#	194468
#	208163
#	222998
#	238555
#	251265
#	265713
#	279915
#	294553
#	309998
#
# Disc length: 4287 seconds
#
# Revision: 0
# Processed by: cddbd v1.5.2PL0 Copyright (c) Steve Scherf et al.
# Submitted via: CDex 1.70beta1
#
DISCID=4210bd17
DTITLE=Varios - Legendary Sidemen (Topaz)
DYEAR=1900
DGENRE=Jazz
TTITLE0=Beatin' the Dog :: Adrian Rollini, Joe Venuti's Blue Four 
TTITLE1=Black and Tan Fantasy :: Bubber Miley 
TTITLE2=Shreveport Stomp :: Tommy Benford, Jelly Roll Morton, Omer Simeon 
TTITLE3=Pencil Papa :: Johnny Dodds 
TTITLE4=Higginbotham Blues :: J.C. Higginbotham 
TTITLE5=Just Blues :: Fletcher Henderson and His Orchestra, Benny Morton 
TTITLE6=I've Found a New Baby :: Sidney Bechet, Tommy Ladnier, The New Orleans Feetwarmers 
TTITLE7=Yeah Man! :: Fletcher Henderson and His Orchestra, Russell Procope 
TTITLE8=In a Sentimental Mood :: Duke Ellington and His Orchestra, Otto Hardwick 
TTITLE9=Clarinet Lament (Barney's Concerto) :: Barney Bigard, Duke Ellington and His Orchestra 
TTITLE10=Echoes of Harlem :: Duke Ellington and His Orchestra, Cootie Williams 
TTITLE11=Swinging at the Daisy Chain :: Count Basie Orchestra, Buck Clayton 
TTITLE12=Ja-Da :: Eddie Condon, Bobby Hackett 
TTITLE13=Swingin' the Blues :: Count Basie Orchestra, Harry "Sweets" Edison
TTITLE14=Prelude to a Kiss :: Lawrence Brown, Duke Ellington and His Orchestra 
TTITLE15=Dickie's Dream :: Count Basie, Dicky Wells 
TTITLE16=Till Tom Special :: Lionel Hampton and His Orchestra, Budd Johnson 
TTITLE17=Chloe :: John Kirby and His Orchestra, Billy Kyle, Charlie Shavers 
TTITLE18=A Portrait of Bert Williams :: Barney Bigard, Duke Ellington and His Orchestra, Joe Tricky Sam Nanton 
TTITLE19=April in Paris :: Buster Bailey 
TTITLE20=I Want a Little Girl :: Eddie Durham 
TTITLE21=Willow Weep for Me :: Cab Calloway and His Orchestra, Hilton Jefferson 
TTITLE22=Jonah Joins the Cab :: Cab Calloway and His Orchestra, Jonah Jones 
EXTD=
EXTT0=
EXTT1=
EXTT2=
EXTT3=
EXTT4=
EXTT5=
EXTT6=
EXTT7=
EXTT8=
EXTT9=
EXTT10=
EXTT11=
EXTT12=
EXTT13=
EXTT14=
EXTT15=
EXTT16=
EXTT17=
EXTT18=
EXTT19=
EXTT20=
EXTT21=
EXTT22=
PLAYORDER=
